<?xml version="1.0" standalone="no"?>
<!DOCTYPE svg PUBLIC "-//W3C//DTD SVG 20010904//EN"
 "http://www.w3.org/TR/2001/REC-SVG-20010904/DTD/svg10.dtd">
<svg version="1.0" xmlns="http://www.w3.org/2000/svg"
 width="820.000000pt" height="547.000000pt" viewBox="0 0 820.000000 547.000000"
 preserveAspectRatio="xMidYMid meet">

<g transform="translate(0.000000,547.000000) scale(0.100000,-0.100000)"
fill="#000000" stroke="none">
<path d="M0 4890 c0 -319 2 -580 4 -580 16 0 36 37 36 68 0 54 10 81 31 87 10
3 21 15 24 26 4 10 14 19 24 19 24 0 45 42 37 75 -5 21 -3 28 13 32 12 3 25
19 31 39 6 19 17 37 23 41 13 8 38 89 42 133 1 14 11 45 22 70 30 66 36 90 23
90 -6 0 -10 6 -7 13 2 6 9 11 15 10 16 -4 34 34 27 57 -4 13 1 24 20 36 14 9
25 21 25 26 0 5 6 15 13 22 20 20 37 -6 37 -56 0 -24 4 -38 9 -33 9 11 31 248
31 343 l0 62 -240 0 -240 0 0 -580z m230 -129 c0 -5 -7 -14 -15 -21 -13 -10
-15 -9 -15 9 0 12 6 21 15 21 8 0 15 -4 15 -9z"/>
<path d="M605 5378 c4 -51 11 -131 16 -178 5 -47 9 -139 9 -205 0 -138 5 -165
30 -165 12 0 20 9 22 23 2 12 9 21 17 19 7 -1 15 7 18 18 3 11 9 20 14 20 5 0
9 17 9 38 0 32 5 41 25 50 32 15 35 15 35 2 0 -5 -7 -10 -17 -10 -9 0 -14 -2
-11 -5 3 -4 16 -3 29 0 22 6 59 60 59 86 0 6 9 24 20 39 11 16 18 34 15 42 -3
7 4 19 16 26 18 12 21 11 26 -7 7 -26 23 -27 23 -2 0 25 12 33 61 35 50 3 78
26 30 26 -19 0 -30 4 -26 10 3 6 15 10 25 10 22 0 44 35 36 56 -6 16 13 64 26
64 4 0 8 -5 8 -10 0 -7 6 -7 19 0 11 5 38 10 60 10 23 0 41 5 41 10 0 6 -11
10 -24 10 -19 0 -23 4 -19 20 4 16 14 20 43 20 33 0 50 12 50 36 0 2 -156 4
-346 4 l-346 0 7 -92z m370 -138 c3 -5 1 -10 -4 -10 -6 0 -11 5 -11 10 0 6 2
10 4 10 3 0 8 -4 11 -10z"/>
<path d="M2565 5261 c-52 -7 -79 -19 -130 -56 -16 -12 -45 -28 -62 -36 -31
-13 -46 -39 -22 -39 6 0 -57 -67 -141 -150 l-152 -149 3 -63 c3 -63 -19 -138
-39 -138 -13 0 -22 -52 -13 -65 12 -16 6 -78 -10 -103 -13 -21 -12 -25 9 -42
53 -43 -2 -138 -81 -141 -21 0 -21 -1 -2 -8 11 -5 28 -7 38 -5 10 2 17 -3 17
-13 0 -9 3 -14 6 -10 4 3 15 -4 25 -16 l19 -22 -5 25 c-7 36 8 58 29 41 19
-16 20 -44 4 -72 -11 -17 -10 -22 6 -35 20 -14 20 -14 0 -15 -12 -1 -8 -4 12
-11 29 -9 32 -15 38 -61 9 -61 59 -183 89 -215 12 -13 34 -30 50 -38 28 -15
38 -38 12 -28 -9 4 -15 0 -15 -10 0 -19 7 -19 90 -1 36 8 87 14 113 15 40 0
50 4 54 20 3 11 9 20 14 20 5 0 8 14 7 31 -2 23 -19 47 -69 96 -38 37 -79 88
-95 121 -27 53 -29 65 -31 188 -2 178 13 236 57 218 21 -9 119 -14 136 -7 8 3
14 12 14 20 0 8 5 11 10 8 6 -4 7 -11 4 -17 -4 -7 -2 -8 4 -4 7 4 12 2 12 -3
0 -6 7 -11 15 -11 24 0 7 26 -31 46 -19 10 -34 21 -34 24 0 8 -102 5 -121 -4
-12 -5 -18 -1 -22 15 -3 12 -4 26 -1 31 8 13 85 9 147 -7 71 -18 77 -18 77 -2
0 25 -34 45 -90 52 -95 11 -94 10 -54 61 19 25 46 67 61 92 33 58 83 107 165
162 61 40 64 41 133 37 88 -5 138 -24 189 -73 35 -34 44 -50 60 -119 10 -44
26 -99 36 -122 11 -24 22 -64 25 -90 12 -88 16 -103 32 -103 23 0 42 30 43 67
0 36 13 49 28 30 13 -16 -1 -159 -21 -212 -21 -56 -50 -105 -63 -105 -6 0 -16
-39 -22 -86 -12 -93 -37 -147 -91 -198 -30 -28 -30 -29 -10 -45 13 -11 22 -32
25 -61 2 -25 6 -67 9 -94 2 -27 12 -61 22 -75 l17 -26 20 48 c44 104 71 29 69
-188 -2 -176 -27 -470 -49 -570 -9 -38 -24 -117 -34 -175 -46 -264 -94 -464
-141 -595 -44 -120 -54 -119 -45 5 10 150 -22 412 -81 655 l-36 150 -14 -40
c-36 -106 -117 -78 -114 40 1 60 -13 82 -23 34 -4 -19 -27 -51 -66 -88 -33
-31 -67 -74 -75 -95 -15 -34 -15 -40 -1 -62 33 -49 10 -111 -72 -196 -36 -37
-60 -68 -54 -68 6 0 14 5 17 10 9 14 45 12 45 -2 0 -19 -59 -55 -112 -68 -73
-18 -112 5 -159 95 -20 39 -43 84 -52 100 -9 17 -17 38 -17 48 0 24 25 21 39
-5 7 -15 9 -16 4 -3 -16 41 -3 133 38 265 50 160 56 258 18 331 -16 33 -19 51
-14 89 5 36 2 56 -10 81 -25 48 -15 107 24 140 61 51 36 60 -89 33 -57 -12
-106 -15 -203 -10 -70 3 -134 3 -143 -1 -9 -3 -29 -35 -45 -70 -16 -36 -38
-76 -49 -90 -24 -30 -25 -55 -6 -86 11 -18 12 -35 3 -87 -5 -36 -9 -97 -8
-137 1 -40 -3 -74 -9 -78 -15 -9 -12 -66 4 -84 26 -29 23 -101 -7 -152 -29
-50 -33 -69 -16 -86 7 -7 6 -22 -6 -49 -12 -28 -14 -53 -9 -93 4 -31 7 -109 8
-176 1 -103 5 -127 24 -172 31 -67 54 -87 130 -112 47 -16 75 -20 113 -15 27
4 49 4 49 0 0 -26 -55 -257 -75 -314 -14 -39 -25 -80 -25 -90 0 -11 -25 -77
-56 -148 -119 -276 -184 -447 -243 -634 -48 -158 -62 -216 -70 -305 -9 -100
-8 -112 9 -136 17 -24 18 -30 4 -74 -9 -33 -14 -103 -15 -219 -1 -136 -3 -158
-10 -109 -12 99 -25 117 -84 124 -28 3 -41 7 -30 8 18 1 19 2 2 12 -11 7 -17
22 -17 49 0 36 -3 40 -25 40 -20 0 -25 5 -25 24 0 13 -7 29 -15 36 -10 8 -15
30 -15 61 l0 49 -60 -4 c-33 -2 -60 1 -60 5 0 5 16 9 35 9 32 0 35 2 35 30 0
17 -4 30 -10 30 -5 0 -10 18 -10 40 0 33 -3 40 -20 40 -17 0 -20 -7 -20 -40
l0 -40 -40 0 c-36 0 -40 2 -31 17 5 10 23 29 40 43 24 19 31 33 31 61 0 31 -5
38 -38 56 -20 11 -54 26 -75 33 -30 9 -37 16 -32 30 3 11 -1 33 -9 49 -9 17
-16 48 -16 71 0 36 -3 40 -24 40 -13 0 -26 5 -28 11 -2 6 -17 13 -32 14 -33 4
-56 24 -60 51 -2 11 -12 20 -25 22 -18 3 -20 6 -11 17 17 21 6 32 -40 39 -29
5 -40 11 -39 24 0 10 3 12 6 5 7 -18 43 -16 43 1 0 11 22 16 87 21 49 4 95 11
103 16 13 7 12 8 -2 9 -10 0 -62 15 -115 34 -108 37 -173 51 -174 39 0 -4 -2
-125 -4 -268 -5 -438 -17 -799 -25 -815 -5 -9 -21 -22 -35 -30 -24 -13 -28
-13 -39 2 -7 10 -19 70 -26 135 -22 203 -25 212 -35 103 -4 -52 -8 -108 -7
-125 0 -20 -1 -23 -5 -10 -7 27 -33 65 -44 65 -5 0 -8 -3 -8 -8 3 -19 -2 -33
-11 -27 -5 3 -10 1 -10 -6 0 -8 -3 -9 -13 0 -8 6 -16 8 -20 5 -3 -3 -13 22
-23 55 -10 36 -22 61 -30 61 -7 0 -11 6 -8 14 9 23 -15 58 -34 52 -22 -7 -57
67 -67 144 -5 37 -14 59 -27 68 -13 10 -16 17 -9 26 7 8 6 21 -4 40 -8 16 -15
34 -15 42 0 7 -10 29 -22 49 -17 30 -19 38 -7 45 7 5 10 13 5 17 -5 4 -11 2
-13 -4 -10 -27 -21 -11 -28 40 -8 60 -28 105 -59 130 l-21 18 21 15 c21 14 21
16 5 69 -9 30 -22 57 -29 60 -9 3 -12 -126 -12 -625 l0 -630 1839 0 1839 0 7
88 c4 48 11 110 14 138 4 28 5 80 2 115 -8 89 -6 450 4 590 6 92 4 132 -9 199
-17 80 -17 86 0 95 9 5 29 20 44 33 15 12 32 22 36 22 5 0 23 19 39 41 17 23
54 59 83 81 29 22 56 46 59 54 3 7 37 38 77 68 150 113 159 131 153 300 -4 92
-8 110 -31 151 -25 42 -27 50 -17 95 11 50 4 114 -19 175 -6 17 -13 36 -15 43
-5 13 -169 -184 -275 -331 -30 -42 -64 -81 -75 -86 -17 -9 -65 -18 -113 -20
-7 -1 4 -17 23 -37 62 -62 69 -107 30 -184 -14 -28 -22 -50 -19 -50 4 0 1 -7
-6 -15 -7 -8 -23 -15 -36 -15 -12 0 -26 -5 -29 -10 -3 -5 -33 -10 -66 -10 -50
0 -59 -3 -59 -17 0 -16 2 -16 10 -3 9 13 14 11 35 -13 14 -16 29 -26 34 -22 5
3 12 1 16 -5 3 -5 11 -10 16 -10 6 0 8 4 5 9 -3 5 1 14 9 21 12 10 15 9 15 -4
0 -9 4 -16 9 -16 5 0 7 9 4 19 -7 26 42 60 60 41 9 -9 8 -15 -7 -24 -10 -6
-26 -19 -35 -28 -8 -10 -21 -18 -28 -18 -7 0 -13 -4 -13 -10 0 -17 52 -11 74
7 l20 18 -18 -30 c-64 -103 -96 -129 -147 -115 -30 8 -93 58 -80 63 8 4 -11
47 -20 47 -5 0 -9 20 -9 45 0 40 -2 45 -22 44 -27 -1 -70 -17 -49 -18 9 -1 11
-4 5 -10 -14 -13 -333 -125 -339 -119 -3 3 13 35 35 71 l41 66 -22 30 c-13 17
-25 31 -28 31 -8 0 -76 -119 -76 -133 -1 -7 -9 -25 -19 -42 -9 -16 -15 -21
-12 -10 6 19 5 19 -8 3 -7 -10 -16 -18 -20 -18 -16 0 -2 34 54 128 l61 102
-26 52 -25 51 19 33 c14 23 18 44 14 68 -4 27 -1 38 16 52 11 10 21 30 21 44
0 24 31 70 48 70 4 0 15 14 24 30 14 24 24 30 52 30 19 0 38 4 41 10 3 6 28
10 56 10 27 0 49 4 49 8 0 10 51 95 211 353 89 143 116 179 148 197 30 17 55
47 101 121 33 55 67 104 75 111 8 7 46 13 85 14 38 0 70 3 70 6 0 3 -7 37 -15
75 -9 39 -22 115 -31 171 -8 56 -21 124 -29 153 -8 28 -22 74 -30 103 -8 28
-23 60 -32 71 -19 21 -113 67 -137 67 -7 0 -76 20 -152 44 -77 25 -158 50
-180 55 -23 6 -61 28 -85 49 l-43 39 27 17 c18 12 28 30 32 54 4 21 14 61 22
90 13 42 14 62 5 107 -8 37 -8 64 -1 81 20 54 22 170 5 290 -9 66 -21 146 -26
179 -4 33 -7 83 -7 112 1 28 -2 49 -6 46 -4 -2 -5 7 -1 21 4 16 2 26 -5 26 -6
0 -11 -6 -11 -12 -1 -26 -28 39 -41 97 -7 33 -16 62 -20 65 -4 3 -10 18 -13
33 -2 14 -7 31 -10 36 -3 5 1 14 9 21 8 7 12 16 9 21 -3 5 2 9 10 9 9 0 16 7
16 15 0 14 -10 17 -76 19 -11 1 -44 27 -76 61 -50 53 -59 59 -92 57 -20 -2
-36 2 -36 7 0 13 -119 83 -130 76 -5 -3 -35 4 -66 15 -66 23 -157 31 -229 21z
m-100 -759 c-8 -8 -25 10 -19 20 4 6 9 5 15 -3 4 -7 6 -15 4 -17z m606 -2969
c7 -10 9 -15 5 -11 -14 12 -36 -11 -29 -29 5 -12 2 -15 -10 -10 -13 5 -17 1
-18 -16 -1 -19 -2 -19 -6 -3 -6 24 16 66 34 66 8 0 11 5 8 10 -10 17 2 11 16
-7z m478 -247 c-3 -3 -11 5 -18 17 -13 21 -12 21 5 5 10 -10 16 -20 13 -22z"/>
<path d="M1960 5052 c0 -4 9 -13 19 -19 16 -10 20 -9 25 3 9 23 8 24 -19 24
-14 0 -25 -3 -25 -8z"/>
<path d="M3338 5028 c-32 -6 -58 -14 -58 -19 0 -5 7 -9 15 -9 8 0 15 -9 15
-20 0 -22 39 -48 49 -32 7 11 185 42 251 43 61 1 110 -10 142 -32 14 -11 31
-19 36 -19 13 0 22 25 22 59 l0 28 -112 0 c-62 0 -156 2 -208 5 -52 4 -121 2
-152 -4z"/>
<path d="M3987 5016 c-11 -11 -12 -26 -5 -68 5 -29 9 -64 9 -77 1 -13 4 -20 7
-15 4 5 20 10 36 11 19 1 42 15 63 37 19 19 58 48 88 65 88 50 74 61 -80 61
-76 0 -107 -4 -118 -14z"/>
<path d="M4702 5019 c-23 -4 -51 -14 -63 -22 -20 -14 -19 -15 24 -32 45 -17
62 -16 119 8 29 12 42 32 32 48 -6 11 -52 10 -112 -2z"/>
<path d="M3515 4850 c-3 -5 -1 -10 4 -10 6 0 11 5 11 10 0 6 -2 10 -4 10 -3 0
-8 -4 -11 -10z"/>
<path d="M3780 4815 c0 -16 6 -25 15 -25 8 0 15 9 15 19 0 10 -7 21 -15 25
-11 4 -15 -1 -15 -19z"/>
<path d="M3815 4706 c-63 -45 -80 -65 -67 -78 7 -7 12 -24 12 -39 0 -19 6 -28
21 -32 24 -6 23 -34 -5 -121 -15 -46 -15 -58 0 -143 8 -51 15 -106 14 -121 -8
-120 8 -126 45 -16 22 67 23 68 4 101 -26 46 -25 97 3 125 17 17 21 32 20 72
0 28 -6 52 -11 54 -16 5 -13 21 5 40 16 16 16 25 -5 143 l-6 36 -30 -21z"/>
<path d="M4017 4683 c-11 -10 -8 -53 3 -53 6 0 10 14 10 30 0 31 -2 35 -13 23z"/>
<path d="M3499 4646 c-12 -13 -12 -73 0 -80 5 -3 11 1 15 9 3 8 13 15 22 15
30 0 114 34 114 47 0 14 -137 22 -151 9z"/>
<path d="M2805 4627 c-11 -8 -24 -15 -30 -15 -16 -1 -18 -32 -2 -32 8 0 50 7
93 16 47 10 98 14 128 10 49 -5 50 -5 25 12 -33 23 -185 30 -214 9z"/>
<path d="M2835 4528 l-40 -38 27 0 c20 0 26 4 22 15 -4 8 -2 15 4 15 5 0 12
-8 15 -18 4 -17 10 -18 66 -9 45 7 61 14 61 26 0 21 -44 41 -77 35 -14 -3 -29
-1 -32 3 -3 5 -24 -8 -46 -29z m115 -12 c0 -3 -4 -8 -10 -11 -5 -3 -10 -1 -10
4 0 6 5 11 10 11 6 0 10 -2 10 -4z"/>
<path d="M2565 4537 c22 -14 44 -23 49 -20 10 6 -25 26 -64 38 -17 4 -13 -1
15 -18z"/>
<path d="M2595 4550 c3 -5 8 -10 11 -10 2 0 4 5 4 10 0 6 -5 10 -11 10 -5 0
-7 -4 -4 -10z"/>
<path d="M2819 4543 c-13 -16 -12 -17 4 -4 16 13 21 21 13 21 -2 0 -10 -8 -17
-17z"/>
<path d="M3161 4454 c0 -11 3 -14 6 -6 3 7 2 16 -1 19 -3 4 -6 -2 -5 -13z"/>
<path d="M3493 4419 c-20 -20 -3 -39 33 -39 30 0 34 3 34 25 0 21 -5 25 -28
25 -15 0 -33 -5 -39 -11z"/>
<path d="M0 4254 c0 -8 5 -12 10 -9 6 3 10 10 10 16 0 5 -4 9 -10 9 -5 0 -10
-7 -10 -16z"/>
<path d="M2598 4263 c7 -3 16 -2 19 1 4 3 -2 6 -13 5 -11 0 -14 -3 -6 -6z"/>
<path d="M2464 4226 c-10 -8 -16 -17 -13 -20 3 -3 14 3 24 14 21 23 17 26 -11
6z"/>
<path d="M2533 4173 c-34 -4 -42 -16 -20 -30 7 -4 28 -27 46 -51 36 -46 83
-76 109 -69 12 3 11 5 -5 6 -29 1 -38 17 -16 30 15 8 15 10 3 11 -9 0 -31 13
-50 29 -53 45 -35 53 121 54 131 2 134 1 137 -20 3 -18 -5 -25 -47 -40 -54
-19 -68 -34 -25 -25 19 3 25 1 20 -7 -15 -23 10 -10 44 24 80 81 76 72 33 79
-49 8 -308 14 -350 9z"/>
<path d="M2678 4053 c6 -2 18 -2 25 0 6 3 1 5 -13 5 -14 0 -19 -2 -12 -5z"/>
<path d="M6359 4040 c-87 -15 -169 -74 -204 -145 -17 -38 -20 -137 -5 -166 9
-16 14 -17 32 -8 18 10 24 8 39 -12 26 -35 39 -89 32 -138 l-6 -44 -28 34 -28
34 -1 -30 c0 -16 -14 -50 -30 -74 -17 -24 -30 -55 -30 -68 0 -26 -2 -28 -125
-120 -76 -58 -94 -78 -127 -138 -80 -149 -110 -305 -133 -685 -18 -318 -31
-423 -61 -513 -13 -37 -30 -116 -39 -175 -9 -59 -23 -134 -31 -167 -24 -94
-24 -95 20 -110 21 -8 45 -20 52 -27 20 -20 35 -226 31 -438 -3 -167 -6 -190
-26 -234 -16 -33 -21 -58 -17 -80 5 -26 1 -37 -18 -55 -14 -13 -33 -49 -42
-80 -9 -31 -29 -78 -44 -106 -35 -64 -94 -253 -120 -384 -11 -57 -20 -104 -20
-107 0 -2 165 -4 366 -4 245 0 363 3 359 10 -4 6 -10 8 -15 5 -5 -3 -17 11
-26 32 -14 32 -14 49 -5 108 6 39 14 97 17 130 4 33 17 87 29 120 14 37 26 97
30 159 6 83 11 103 30 122 22 22 38 81 54 205 5 37 14 76 19 86 6 10 24 70 41
132 17 63 32 115 33 116 2 2 12 5 23 7 17 3 21 -5 28 -52 10 -70 19 -111 51
-235 36 -141 48 -253 42 -407 -4 -120 4 -325 20 -480 l6 -58 834 0 834 0 0
350 c0 343 0 350 -20 350 -11 0 -20 5 -20 10 0 20 -51 10 -76 -15 -14 -14 -34
-25 -44 -25 -15 0 -20 7 -20 25 0 32 -14 32 -46 0 -14 -14 -31 -25 -39 -25
-15 0 -51 -42 -77 -88 -23 -42 -71 -65 -145 -68 -34 -1 -66 -5 -71 -8 -5 -3
-13 -22 -16 -41 -7 -35 -21 -46 -28 -23 -3 8 -12 8 -35 -2 -23 -10 -29 -18
-22 -26 7 -9 5 -15 -7 -22 -15 -9 -16 -13 -5 -26 9 -11 10 -16 2 -16 -6 0 -11
-5 -11 -10 0 -6 10 -8 24 -4 16 4 25 1 29 -11 7 -18 -15 -30 -38 -21 -10 4
-15 -1 -15 -14 0 -11 -7 -20 -15 -20 -8 0 -15 -9 -15 -19 0 -21 -10 -26 -82
-40 -27 -5 -48 -5 -48 0 0 5 -18 9 -40 9 -29 0 -40 -4 -40 -15 0 -11 -11 -15
-38 -15 -21 0 -43 -5 -49 -11 -15 -15 -36 27 -52 106 -7 33 -17 70 -22 83 -5
13 -6 34 -3 48 4 17 1 31 -11 44 -15 17 -16 22 -4 36 7 9 14 39 14 68 1 28 12
87 24 131 12 44 26 100 31 125 5 25 13 58 19 73 6 16 11 43 11 61 0 18 9 59
20 92 11 32 20 80 20 107 0 41 -3 49 -26 59 -30 14 -76 98 -78 142 -2 35 -7
36 -156 56 -52 6 -124 18 -160 26 -36 8 -87 19 -115 25 -27 6 -74 25 -102 41
-51 28 -53 31 -53 72 0 23 7 51 15 62 14 19 14 19 30 -4 21 -29 41 -18 21 12
-8 13 -18 39 -21 60 -4 21 -13 36 -21 36 -30 0 -36 42 -16 125 17 73 21 81 52
97 19 10 38 14 44 9 14 -11 136 -54 141 -49 1 1 4 32 6 68 l4 65 -75 8 c-41 4
-92 10 -113 12 -37 3 -97 45 -97 67 0 5 16 16 35 24 39 16 44 33 18 56 -17 14
-36 20 -121 35 -37 6 -45 14 -36 37 7 17 34 21 49 8 16 -14 95 -40 161 -53
107 -22 119 4 27 58 -31 18 -43 31 -43 48 0 35 21 42 39 14 27 -41 73 -80 150
-126 58 -36 71 -40 71 -20 -1 17 -25 47 -39 47 -20 0 -113 104 -133 148 -18
40 -18 45 -3 68 20 31 13 41 -40 65 -47 21 -56 30 -75 77 -12 30 -11 36 9 62
11 16 21 38 21 49 0 11 4 23 10 26 5 3 7 18 4 33 -4 20 0 33 15 46 15 14 21
31 21 63 0 31 4 43 13 41 21 -7 37 -51 31 -85 -5 -28 -3 -34 17 -41 13 -5 46
-10 73 -11 39 -1 52 3 63 19 9 12 25 20 43 20 35 0 45 -13 25 -30 -23 -19 -19
-26 23 -43 40 -16 73 -20 137 -17 36 1 38 2 18 12 -36 17 -35 36 3 64 19 15
37 24 40 21 4 -3 13 1 22 9 19 19 18 114 -2 153 -9 17 -10 36 -5 56 12 41 -15
185 -44 240 -9 17 -18 37 -21 45 -19 50 -82 112 -191 187 -66 45 -131 90 -143
99 -13 10 -42 18 -65 18 -41 1 -42 0 -45 -34 -6 -56 -43 -83 -57 -41 -3 11
-17 27 -31 36 -24 16 -26 15 -40 -2 -22 -29 -17 -43 16 -43 45 0 74 -33 66
-79 -3 -20 -12 -41 -21 -47 -8 -6 -15 -16 -15 -22 0 -6 -7 -17 -15 -25 -17
-18 -69 -8 -120 23 -16 10 -33 18 -37 17 -3 -1 -21 12 -40 28 -25 23 -34 39
-36 70 -1 22 -9 59 -18 82 -23 63 -9 131 30 153 13 7 28 28 35 50 19 65 112
116 165 92 13 -6 43 -13 67 -17 38 -5 48 -3 72 20 15 14 27 32 27 40 0 28 -38
53 -87 60 -26 3 -67 10 -90 15 -48 11 -97 11 -164 0z m485 -559 c24 -26 39
-93 23 -103 -24 -15 -17 -54 14 -72 19 -11 29 -25 29 -41 0 -33 -22 -115 -31
-115 -4 0 -9 -11 -13 -23 -18 -72 -89 -101 -127 -53 -11 14 -28 27 -37 31 -19
5 -72 126 -72 162 0 25 38 45 75 40 27 -3 31 -8 36 -45 5 -36 2 -44 -18 -57
-35 -23 -29 -85 8 -85 17 0 19 5 14 45 -5 45 -5 45 25 45 16 0 30 5 30 10 0 6
-3 10 -8 10 -4 0 -8 17 -8 38 -2 58 -34 106 -75 112 -20 3 -29 8 -22 13 8 5 8
15 0 37 -9 24 -8 32 8 49 25 29 124 30 149 2z m-386 -150 c3 -8 -1 -12 -9 -9
-7 2 -15 10 -17 17 -3 8 1 12 9 9 7 -2 15 -10 17 -17z m275 -327 c3 -4 -1 -13
-9 -21 -17 -18 -29 -11 -21 12 7 16 19 20 30 9z m-153 -1649 c0 -8 -6 -15 -12
-15 -7 -1 -2 -10 11 -20 13 -11 20 -20 16 -20 -4 0 -2 -7 5 -15 7 -8 9 -15 5
-15 -4 0 -2 -7 5 -15 7 -8 9 -15 5 -15 -4 0 -1 -10 7 -22 20 -30 21 -148 3
-217 -16 -63 -18 -65 -45 -56 -27 8 -71 78 -75 119 -2 17 -13 62 -25 99 -22
70 -21 97 3 97 21 0 56 43 63 78 6 32 34 46 34 17z m415 -151 c8 -9 35 -26 58
-38 44 -24 50 -42 33 -94 -6 -19 -4 -24 14 -29 12 -3 19 -11 16 -19 -3 -7 2
-54 9 -105 13 -86 13 -95 -3 -112 -9 -11 -16 -28 -14 -38 2 -10 -1 -19 -6 -19
-11 0 -34 -73 -65 -202 -23 -95 -23 -158 -2 -226 6 -19 5 -21 -11 -16 -24 9
-64 44 -64 57 0 6 -6 18 -14 26 -28 32 -58 141 -50 185 4 23 6 46 4 51 -8 24
2 200 12 206 6 4 8 22 4 45 -3 22 -1 64 4 94 22 112 22 116 1 164 -17 36 -19
51 -11 66 13 25 62 27 85 4z m-173 -852 c14 -44 37 -213 38 -286 0 -5 -11 3
-24 18 l-23 28 -6 -23 c-5 -17 -9 -21 -17 -13 -8 8 -8 25 0 57 7 32 7 83 0
158 -13 149 -2 169 32 61z m178 -92 c0 -5 -2 -10 -4 -10 -3 0 -8 5 -11 10 -3
6 -1 10 4 10 6 0 11 -4 11 -10z m550 -11 c0 -5 -7 -9 -15 -9 -15 0 -20 12 -9
23 8 8 24 -1 24 -14z m-480 -14 c10 -12 10 -15 -3 -15 -8 0 -20 7 -27 15 -10
12 -10 15 3 15 8 0 20 -7 27 -15z"/>
<path d="M2708 4023 c7 -3 16 -2 19 1 4 3 -2 6 -13 5 -11 0 -14 -3 -6 -6z"/>
<path d="M3805 3758 c4 -117 4 -116 15 -97 12 21 17 159 7 177 -18 28 -24 7
-22 -80z"/>
<path d="M6371 3793 c-19 -21 11 -52 45 -45 18 3 30 -1 40 -17 10 -13 26 -21
45 -21 24 0 29 4 29 25 0 32 -33 54 -97 64 -37 5 -52 4 -62 -6z"/>
<path d="M2196 3748 c19 -33 26 -38 40 -27 23 19 16 35 -17 37 -22 2 -28 -1
-23 -10z"/>
<path d="M6607 3753 c-12 -11 -7 -43 6 -43 17 0 37 20 37 37 0 13 -32 18 -43
6z"/>
<path d="M2504 3499 c-19 -21 -19 -22 32 -117 28 -53 58 -100 66 -105 20 -13
73 14 131 68 52 49 58 74 25 105 -24 22 -64 26 -103 8 -24 -11 -28 -9 -56 25
-35 42 -66 48 -95 16z"/>
<path d="M4447 2904 c-6 -6 -230 -34 -274 -34 -24 0 -43 -4 -43 -9 0 -5 -10
-12 -22 -14 -13 -2 -5 -3 17 -1 22 2 76 6 119 10 74 5 242 37 252 47 3 2 -6 5
-20 5 -14 0 -27 -2 -29 -4z"/>
<path d="M7170 2854 c0 -2 7 -16 16 -29 9 -14 14 -31 11 -39 -7 -17 11 -36 35
-36 17 0 16 4 -6 49 -14 27 -32 51 -41 54 -8 4 -15 4 -15 1z"/>
<path d="M2435 2738 c-9 -13 -30 -44 -46 -70 -18 -27 -45 -55 -65 -64 -39 -18
-104 -27 -104 -13 0 5 -4 9 -9 9 -13 0 6 -55 24 -70 9 -7 15 -8 20 -1 3 6 24
15 47 21 68 19 168 136 168 196 0 21 -17 17 -35 -8z"/>
<path d="M3759 2674 c-12 -14 -11 -16 5 -13 11 2 21 10 24 17 5 17 -13 15 -29
-4z"/>
<path d="M3727 2553 c-11 -13 -17 -26 -14 -29 2 -3 12 7 21 22 23 33 17 39 -7
7z"/>
<path d="M2965 2530 c-9 -15 5 -51 16 -44 6 4 6 11 -2 20 -11 13 -6 18 14 15
5 -1 6 3 2 9 -8 13 -22 13 -30 0z"/>
<path d="M3564 2409 c-25 -40 -48 -79 -51 -88 -5 -17 21 21 73 107 48 78 31
63 -22 -19z"/>
<path d="M3675 2469 c-4 -6 -5 -12 -2 -15 2 -3 7 2 10 11 7 17 1 20 -8 4z"/>
<path d="M7010 2421 c0 -5 5 -13 10 -16 6 -3 10 -2 10 4 0 5 -4 13 -10 16 -5
3 -10 2 -10 -4z"/>
<path d="M3617 2375 c-9 -19 -15 -35 -12 -35 7 0 37 61 33 66 -3 2 -12 -12
-21 -31z"/>
<path d="M7025 2358 c4 -13 12 -27 18 -33 7 -7 8 -4 3 8 -3 10 -6 25 -6 33 0
8 -5 14 -11 14 -6 0 -8 -9 -4 -22z"/>
<path d="M3567 2300 c-10 -16 -23 -35 -30 -42 -30 -31 -58 -91 -48 -101 8 -8
11 -7 11 1 0 24 1 27 20 47 25 27 81 125 72 125 -4 0 -16 -13 -25 -30z"/>
<path d="M7107 2313 c-4 -3 -7 -17 -7 -30 0 -20 -4 -23 -27 -21 -24 3 -28 -1
-31 -24 -3 -22 2 -29 22 -34 15 -3 32 -1 40 5 10 8 16 9 21 1 3 -5 16 -10 28
-9 18 0 16 3 -10 15 -38 16 -42 31 -10 36 14 2 22 10 22 22 0 20 -37 51 -48
39z"/>
<path d="M3481 2278 c-14 -23 -14 -23 8 -4 22 20 25 26 13 26 -4 0 -13 -10
-21 -22z"/>
<path d="M6860 2190 c0 -5 5 -21 12 -34 9 -21 8 -32 -7 -61 -19 -34 -19 -35 1
-75 23 -45 37 -40 47 15 6 34 -11 133 -26 153 -11 14 -27 16 -27 2z"/>
<path d="M3461 2148 c3 -25 -3 -53 -8 -40 -4 10 -8 10 -19 1 -11 -9 -18 -8
-29 1 -13 11 -19 8 -40 -16 -29 -33 -25 -40 31 -49 l41 -6 21 50 c24 56 27 71
12 71 -6 0 -10 -6 -9 -12z"/>
<path d="M3354 1895 c25 -23 31 -25 40 -13 6 8 18 17 26 21 11 4 9 6 -6 6 -12
1 -37 4 -55 7 l-34 7 29 -28z"/>
<path d="M7230 1858 l-25 -9 25 -19 c29 -22 48 -11 34 19 -7 15 -14 17 -34 9z"/>
<path d="M7625 1742 c0 -42 -4 -94 -9 -114 -7 -32 -5 -39 9 -45 30 -11 55 31
55 92 0 44 -3 54 -20 58 -13 3 -20 14 -21 29 -2 64 -14 47 -14 -20z"/>
<path d="M1040 1246 c0 -11 9 -16 26 -16 31 0 28 23 -4 28 -15 2 -22 -2 -22
-12z"/>
<path d="M800 1140 c0 -5 4 -10 9 -10 6 0 13 5 16 10 3 6 -1 10 -9 10 -9 0
-16 -4 -16 -10z"/>
<path d="M160 1061 c0 -11 29 -35 35 -29 2 2 -4 12 -15 21 -11 9 -20 13 -20 8z"/>
<path d="M8030 760 c0 -5 7 -10 16 -10 8 0 12 5 9 10 -3 6 -10 10 -16 10 -5 0
-9 -4 -9 -10z"/>
<path d="M1201 634 c0 -11 3 -14 6 -6 3 7 2 16 -1 19 -3 4 -6 -2 -5 -13z"/>
<path d="M500 545 c0 -15 4 -24 10 -20 6 3 10 12 10 20 0 8 -4 17 -10 20 -6 4
-10 -5 -10 -20z"/>
<path d="M1273 513 c4 -3 7 -22 7 -44 0 -35 3 -39 25 -39 22 0 24 3 15 19 -5
11 -10 29 -10 40 0 12 -4 21 -9 21 -5 0 -15 2 -23 3 -7 2 -10 2 -5 0z"/>
<path d="M7520 465 c0 -9 5 -15 11 -13 6 2 11 8 11 13 0 5 -5 11 -11 13 -6 2
-11 -4 -11 -13z"/>
<path d="M7417 313 c-11 -10 -8 -20 8 -27 10 -4 15 1 15 14 0 20 -11 26 -23
13z"/>
</g>
</svg>
